HIERARCHY
ROOT SpineBase
{
  OFFSET 0.000000 0.000000 0.000000
  CHANNELS 6 Xposition Yposition Zposition Zrotation Xrotation Yrotation
  JOINT SpineMid
  {
    OFFSET 0.000000 22.816025 0.000000
    CHANNELS 3 Zrotation Xrotation Yrotation
    JOINT SpineShoulder
    {
      OFFSET -0.000739 17.165092 -0.557117
      CHANNELS 3 Zrotation Xrotation Yrotation
      JOINT Neck
      {
        OFFSET 0.014416 5.769567 -0.456473
        CHANNELS 3 Zrotation Xrotation Yrotation
        JOINT Head
        {
          OFFSET -1.932673 11.711244 1.840191
          CHANNELS 3 Zrotation Xrotation Yrotation
          End Site
          {
            OFFSET 0 0 0
          }
        }
      }
      JOINT ShoulderLeft
      {
        OFFSET -11.993907 -3.936575 4.862924
        CHANNELS 3 Zrotation Xrotation Yrotation
        JOINT ElbowLeft
        {
          OFFSET -5.537678 -22.646281 -2.180988
          CHANNELS 3 Zrotation Xrotation Yrotation
          JOINT WristLeft
          {
            OFFSET -3.052845 -7.321650 -16.351525
            CHANNELS 3 Zrotation Xrotation Yrotation
            JOINT HandLeft
            {
              OFFSET 0.059551 -0.521102 -2.819298
              CHANNELS 3 Zrotation Xrotation Yrotation
              JOINT HandTipLeft
              {
                OFFSET -2.171776 -1.186016 -8.343548
                CHANNELS 3 Zrotation Xrotation Yrotation
                End Site
                {
                  OFFSET 0 0 0
                }
              }
              JOINT ThumbLeft
              {
                OFFSET -2.378641 2.998783 -1.270739
                CHANNELS 3 Zrotation Xrotation Yrotation
                End Site
                {
                  OFFSET 0 0 0
                }
              }
            }
          }
        }
      }
      JOINT ShoulderRight
      {
        OFFSET 9.057889 -1.864023 -8.387173
        CHANNELS 3 Zrotation Xrotation Yrotation
        JOINT ElbowRight
        {
          OFFSET 0.456446 -18.321157 -6.304287
          CHANNELS 3 Zrotation Xrotation Yrotation
          JOINT WristRight
          {
            OFFSET -11.122409 -16.053017 -15.714513
            CHANNELS 3 Zrotation Xrotation Yrotation
            JOINT HandRight
            {
              OFFSET -4.072979 -2.155005 -2.056681
              CHANNELS 3 Zrotation Xrotation Yrotation
              JOINT HandTipRight
              {
                OFFSET -2.361653 -4.129537 -0.982589
                CHANNELS 3 Zrotation Xrotation Yrotation
                End Site
                {
                  OFFSET 0 0 0
                }
              }
              JOINT ThumbRight
              {
                OFFSET -2.409141 2.033817 -3.179921
                CHANNELS 3 Zrotation Xrotation Yrotation
                End Site
                {
                  OFFSET 0 0 0
                }
              }
            }
          }
        }
      }
    }
  }
  JOINT HipLeft
  {
    OFFSET -4.848184 0.866799 -0.102177
    CHANNELS 3 Zrotation Xrotation Yrotation
    JOINT KneeLeft
    {
      OFFSET -24.734899 -2.255543 -25.945240
      CHANNELS 3 Zrotation Xrotation Yrotation
      JOINT AnkleLeft
      {
        OFFSET 1.008733 -37.569380 -0.538948
        CHANNELS 3 Zrotation Xrotation Yrotation
        JOINT FootLeft
        {
          OFFSET 1.097451 -1.136207 -8.667712
          CHANNELS 3 Zrotation Xrotation Yrotation
          End Site
          {
            OFFSET 0 0 0
          }
        }
      }
    }
  }
  JOINT HipRight
  {
    OFFSET 4.562218 1.711717 -5.641919
    CHANNELS 3 Zrotation Xrotation Yrotation
    JOINT KneeRight
    {
      OFFSET -21.705963 1.565510 -27.210745
      CHANNELS 3 Zrotation Xrotation Yrotation
      JOINT AnkleRight
      {
        OFFSET -0.327453 -33.702163 -2.860804
        CHANNELS 3 Zrotation Xrotation Yrotation
        JOINT FootRight
        {
          OFFSET -4.468015 -2.667902 -9.117621
          CHANNELS 3 Zrotation Xrotation Yrotation
          End Site
          {
            OFFSET 0 0 0
          }
        }
      }
    }
  }
}
MOTION
Frames: 6
Frame Time: 0.033333
19.970787 41.117113 367.561997 -0.000000 0.000000 30.484594 -0.000000 0.000000 -30.484594 -0.000000 0.000000 0.000000 -0.000000 0.000000 0.000000 0.000000 0.000000 0.000000 -0.000000 0.000000 0.000000 -0.000000 0.000000 0.000000 -0.000000 0.000000 0.000000 -0.000000 0.000000 0.000000 0.000000 0.000000 0.000000 0.000000 0.000000 0.000000 -0.000000 0.000000 0.000000 -0.000000 0.000000 0.000000 -0.000000 0.000000 0.000000 -0.000000 0.000000 0.000000 0.000000 0.000000 0.000000 0.000000 0.000000 0.000000 -0.000000 0.000000 -30.484594 -0.000000 0.000000 0.000000 -0.000000 0.000000 0.000000 0.000000 0.000000 0.000000 -0.000000 0.000000 -30.484594 -0.000000 0.000000 0.000000 -0.000000 0.000000 0.000000 0.000000 0.000000 0.000000
19.890296 41.081294 367.615471 -0.138666 -0.067790 30.450244 0.153895 -0.011835 -30.450310 -0.000000 0.000000 0.000000 -0.000000 0.000000 0.000000 0.000000 0.000000 0.000000 -0.000000 0.000000 0.000000 -0.160596 0.957981 -0.038701 -0.666519 -1.005859 4.511354 1.025155 0.890795 -6.915673 0.000000 0.000000 0.000000 0.000000 0.000000 0.000000 -0.000000 0.000000 0.000000 -1.472035 0.446426 1.123182 6.808580 -1.243864 -5.282965 -9.166168 7.558163 1.067817 0.000000 0.000000 0.000000 0.000000 0.000000 0.000000 0.153895 -0.011835 -30.450310 -0.000000 0.000000 0.000000 -0.749912 -6.392036 -0.883181 0.000000 0.000000 0.000000 0.153895 -0.011835 -30.450310 -0.000000 0.000000 0.000000 -1.882826 4.911698 -1.460509 0.000000 0.000000 0.000000
19.821870 41.047990 367.655363 -0.254814 -0.109741 30.419508 0.275301 -0.034386 -30.419669 -0.000000 0.000000 0.000000 -0.000000 0.000000 0.000000 0.000000 0.000000 0.000000 0.371822 -0.968868 0.204586 -0.638539 2.666637 -0.277909 -1.068430 -1.729351 7.343664 1.804927 1.524633 -11.736553 0.000000 0.000000 0.000000 0.000000 0.000000 0.000000 -0.000000 0.000000 0.000000 -2.914982 0.822927 2.249133 12.282757 -2.603224 -9.744544 -16.636912 12.466550 2.540380 0.000000 0.000000 0.000000 0.000000 0.000000 0.000000 0.275301 -0.034386 -30.419669 -0.000000 0.000000 0.000000 -1.465202 -11.751233 -1.791856 0.000000 0.000000 0.000000 0.275301 -0.034386 -30.419669 -0.000000 0.000000 0.000000 -2.957881 7.871486 -2.259596 0.000000 0.000000 0.000000
19.765509 41.017202 367.681674 -0.348472 -0.125886 30.392505 0.364273 -0.067713 -30.392673 -0.000000 0.000000 0.000000 -0.000000 0.000000 0.000000 0.000000 0.000000 0.000000 0.495822 -1.379675 0.296262 -0.828451 3.621249 -0.414034 -1.325593 -2.186169 9.156778 2.380168 1.959462 -15.101139 0.000000 0.000000 0.000000 0.000000 0.000000 0.000000 -0.000000 0.000000 0.000000 -4.323910 1.129500 3.373000 16.656991 -3.900640 -13.547488 -22.465636 15.416571 4.076862 0.000000 0.000000 0.000000 0.000000 0.000000 0.000000 0.364273 -0.067713 -30.392673 -0.000000 0.000000 0.000000 -2.127790 -16.114528 -2.702519 0.000000 0.000000 0.000000 0.364273 -0.067713 -30.392673 -0.000000 0.000000 0.000000 -3.483886 9.355523 -2.635844 0.000000 0.000000 0.000000
19.721211 40.988930 367.694403 -0.419671 -0.116263 30.369342 0.420865 -0.111865 -30.369357 -0.000000 0.000000 0.000000 -0.000000 0.000000 0.000000 0.000000 0.000000 0.000000 0.579147 -1.743466 0.380424 -0.939346 4.350759 -0.552494 -1.496397 -2.390663 10.280384 2.769042 2.219907 -17.329757 0.000000 0.000000 0.000000 0.000000 0.000000 0.000000 -0.000000 0.000000 0.000000 -5.694256 1.366701 4.490224 20.152337 -5.044364 -16.849635 -26.812846 16.985607 5.512004 0.000000 0.000000 0.000000 0.000000 0.000000 0.000000 0.420865 -0.111865 -30.369357 -0.000000 0.000000 0.000000 -2.722289 -19.565569 -3.598771 0.000000 0.000000 0.000000 0.420865 -0.111865 -30.369357 -0.000000 0.000000 0.000000 -3.570778 9.594982 -2.687798 0.000000 0.000000 0.000000
19.688978 40.963173 367.693551 -0.468442 -0.080907 30.350111 0.445125 -0.166877 -30.349794 -0.000000 0.000000 0.000000 -0.000000 0.000000 0.000000 0.000000 0.000000 0.000000 0.622013 -2.061489 0.456831 -0.974533 4.867876 -0.695657 -1.609473 -2.347492 10.880450 2.976984 2.313025 -18.584069 0.000000 0.000000 0.000000 0.000000 0.000000 0.000000 -0.000000 0.000000 0.000000 -7.021872 1.535581 5.596611 22.949116 -5.991950 -19.779468 -29.874242 17.581874 6.795174 0.000000 0.000000 0.000000 0.000000 0.000000 0.000000 0.445125 -0.166877 -30.349794 -0.000000 0.000000 0.000000 -3.235612 -22.197291 -4.470292 0.000000 0.000000 0.000000 0.445125 -0.166877 -30.349794 -0.000000 0.000000 0.000000 -3.235106 8.626521 -2.429719 0.000000 0.000000 0.000000
